<svg width="140" height="140" viewBox="0 0 140 140" fill="none" xmlns="http://www.w3.org/2000/svg">
<circle cx="70" cy="70" r="70" fill="#3C4CFB"/>
<g filter="url(#filter0_d_202_4)">
<mask id="path-2-outside-1_202_4" maskUnits="userSpaceOnUse" x="17" y="28" width="107" height="81" fill="black">
<rect fill="white" x="17" y="28" width="107" height="81"/>
<path d="M52.4801 29.6364H61.7273V84.2244C61.7273 89.0966 60.8324 93.2354 59.0426 96.641C57.2528 100.047 54.7298 102.632 51.4734 104.397C48.217 106.162 44.3764 107.044 39.9517 107.044C35.7756 107.044 32.0593 106.286 28.8029 104.77C25.5465 103.228 22.9862 101.041 21.1218 98.207C19.2575 95.3732 18.3253 92.005 18.3253 88.1023H27.4233C27.4233 90.2649 27.9577 92.1541 29.0266 93.7699C30.1204 95.3608 31.6119 96.6037 33.5011 97.4986C35.3903 98.3935 37.5405 98.8409 39.9517 98.8409C42.6115 98.8409 44.8736 98.2816 46.7379 97.163C48.6023 96.0444 50.0192 94.4038 50.9886 92.2411C51.983 90.0536 52.4801 87.3814 52.4801 84.2244V29.6364ZM69.7589 106V29.6364H96.4563C101.776 29.6364 106.163 30.5561 109.619 32.3956C113.074 34.2102 115.647 36.6587 117.337 39.7411C119.027 42.7986 119.873 46.1918 119.873 49.9205C119.873 53.2017 119.288 55.9112 118.12 58.049C116.977 60.1868 115.46 61.8771 113.571 63.12C111.707 64.3629 109.681 65.2827 107.493 65.8793V66.625C109.83 66.7741 112.179 67.5945 114.54 69.0859C116.902 70.5774 118.878 72.7152 120.469 75.4993C122.06 78.2834 122.855 81.6889 122.855 85.7159C122.855 89.544 121.985 92.9869 120.245 96.0444C118.505 99.1019 115.759 101.526 112.005 103.315C108.251 105.105 103.367 106 97.3512 106H69.7589ZM79.006 97.7969H97.3512C103.392 97.7969 107.68 96.6286 110.215 94.2919C112.776 91.9304 114.056 89.0717 114.056 85.7159C114.056 83.1307 113.397 80.7443 112.08 78.5568C110.762 76.3445 108.885 74.5795 106.449 73.2621C104.013 71.9197 101.13 71.2486 97.7987 71.2486H79.006V97.7969ZM79.006 63.1946H96.158C98.9421 63.1946 101.453 62.6477 103.69 61.554C105.952 60.4602 107.742 58.919 109.059 56.9304C110.402 54.9418 111.073 52.6051 111.073 49.9205C111.073 46.5646 109.904 43.7184 107.568 41.3817C105.231 39.0202 101.527 37.8395 96.4563 37.8395H79.006V63.1946Z"/>
</mask>
<path d="M52.4801 29.6364H61.7273V84.2244C61.7273 89.0966 60.8324 93.2354 59.0426 96.641C57.2528 100.047 54.7298 102.632 51.4734 104.397C48.217 106.162 44.3764 107.044 39.9517 107.044C35.7756 107.044 32.0593 106.286 28.8029 104.77C25.5465 103.228 22.9862 101.041 21.1218 98.207C19.2575 95.3732 18.3253 92.005 18.3253 88.1023H27.4233C27.4233 90.2649 27.9577 92.1541 29.0266 93.7699C30.1204 95.3608 31.6119 96.6037 33.5011 97.4986C35.3903 98.3935 37.5405 98.8409 39.9517 98.8409C42.6115 98.8409 44.8736 98.2816 46.7379 97.163C48.6023 96.0444 50.0192 94.4038 50.9886 92.2411C51.983 90.0536 52.4801 87.3814 52.4801 84.2244V29.6364ZM69.7589 106V29.6364H96.4563C101.776 29.6364 106.163 30.5561 109.619 32.3956C113.074 34.2102 115.647 36.6587 117.337 39.7411C119.027 42.7986 119.873 46.1918 119.873 49.9205C119.873 53.2017 119.288 55.9112 118.12 58.049C116.977 60.1868 115.46 61.8771 113.571 63.12C111.707 64.3629 109.681 65.2827 107.493 65.8793V66.625C109.83 66.7741 112.179 67.5945 114.54 69.0859C116.902 70.5774 118.878 72.7152 120.469 75.4993C122.06 78.2834 122.855 81.6889 122.855 85.7159C122.855 89.544 121.985 92.9869 120.245 96.0444C118.505 99.1019 115.759 101.526 112.005 103.315C108.251 105.105 103.367 106 97.3512 106H69.7589ZM79.006 97.7969H97.3512C103.392 97.7969 107.68 96.6286 110.215 94.2919C112.776 91.9304 114.056 89.0717 114.056 85.7159C114.056 83.1307 113.397 80.7443 112.08 78.5568C110.762 76.3445 108.885 74.5795 106.449 73.2621C104.013 71.9197 101.13 71.2486 97.7987 71.2486H79.006V97.7969ZM79.006 63.1946H96.158C98.9421 63.1946 101.453 62.6477 103.69 61.554C105.952 60.4602 107.742 58.919 109.059 56.9304C110.402 54.9418 111.073 52.6051 111.073 49.9205C111.073 46.5646 109.904 43.7184 107.568 41.3817C105.231 39.0202 101.527 37.8395 96.4563 37.8395H79.006V63.1946Z" fill="white"/>
<path d="M52.4801 29.6364V28.6364H51.4801V29.6364H52.4801ZM61.7273 29.6364H62.7273V28.6364H61.7273V29.6364ZM59.0426 96.641L59.9278 97.1062V97.1062L59.0426 96.641ZM51.4734 104.397L51.9499 105.276V105.276L51.4734 104.397ZM28.8029 104.77L28.3751 105.673L28.3808 105.676L28.8029 104.77ZM21.1218 98.207L20.2864 98.7566H20.2864L21.1218 98.207ZM18.3253 88.1023V87.1023H17.3253V88.1023H18.3253ZM27.4233 88.1023H28.4233V87.1023H27.4233V88.1023ZM29.0266 93.7699L28.1926 94.3216L28.1975 94.3291L28.2026 94.3364L29.0266 93.7699ZM33.5011 97.4986L33.9292 96.5948V96.5948L33.5011 97.4986ZM46.7379 97.163L46.2234 96.3055V96.3055L46.7379 97.163ZM50.9886 92.2411L50.0783 91.8273L50.0761 91.8321L50.9886 92.2411ZM52.4801 29.6364V30.6364H61.7273V29.6364V28.6364H52.4801V29.6364ZM61.7273 29.6364H60.7273V84.2244H61.7273H62.7273V29.6364H61.7273ZM61.7273 84.2244H60.7273C60.7273 88.9767 59.8544 92.9469 58.1574 96.1758L59.0426 96.641L59.9278 97.1062C61.8104 93.524 62.7273 89.2165 62.7273 84.2244H61.7273ZM59.0426 96.641L58.1574 96.1758C56.4561 99.413 54.072 101.851 50.9969 103.517L51.4734 104.397L51.9499 105.276C55.3875 103.413 58.0496 100.68 59.9278 97.1062L59.0426 96.641ZM51.4734 104.397L50.9969 103.517C47.9128 105.189 44.2423 106.044 39.9517 106.044V107.044V108.044C44.5105 108.044 48.5212 107.134 51.9499 105.276L51.4734 104.397ZM39.9517 107.044V106.044C35.8978 106.044 32.3294 105.309 29.225 103.863L28.8029 104.77L28.3808 105.676C31.7892 107.263 35.6533 108.044 39.9517 108.044V107.044ZM28.8029 104.77L29.2307 103.866C26.1294 102.398 23.7144 100.328 21.9572 97.6574L21.1218 98.207L20.2864 98.7566C22.2579 101.753 24.9637 104.059 28.3751 105.673L28.8029 104.77ZM21.1218 98.207L21.9572 97.6574C20.2157 95.0103 19.3253 91.8398 19.3253 88.1023H18.3253H17.3253C17.3253 92.1701 18.2992 95.7361 20.2864 98.7566L21.1218 98.207ZM18.3253 88.1023V89.1023H27.4233V88.1023V87.1023H18.3253V88.1023ZM27.4233 88.1023H26.4233C26.4233 90.4375 27.0031 92.5235 28.1926 94.3216L29.0266 93.7699L29.8607 93.2181C28.9124 91.7847 28.4233 90.0923 28.4233 88.1023H27.4233ZM29.0266 93.7699L28.2026 94.3364C29.4045 96.0846 31.038 97.4384 33.073 98.4023L33.5011 97.4986L33.9292 96.5948C32.1857 95.769 30.8363 94.637 29.8507 93.2034L29.0266 93.7699ZM33.5011 97.4986L33.073 98.4023C35.1151 99.3696 37.4151 99.8409 39.9517 99.8409V98.8409V97.8409C37.6659 97.8409 35.6655 97.4173 33.9292 96.5948L33.5011 97.4986ZM39.9517 98.8409V99.8409C42.7523 99.8409 45.2013 99.2512 47.2524 98.0205L46.7379 97.163L46.2234 96.3055C44.5458 97.3121 42.4707 97.8409 39.9517 97.8409V98.8409ZM46.7379 97.163L47.2524 98.0205C49.3081 96.7871 50.8559 94.9818 51.9011 92.6502L50.9886 92.2411L50.0761 91.8321C49.1824 93.8257 47.8965 95.3017 46.2234 96.3055L46.7379 97.163ZM50.9886 92.2411L51.899 92.6549C52.9678 90.3035 53.4801 87.4814 53.4801 84.2244H52.4801H51.4801C51.4801 87.2814 50.9981 89.8038 50.0783 91.8273L50.9886 92.2411ZM52.4801 84.2244H53.4801V29.6364H52.4801H51.4801V84.2244H52.4801ZM69.7589 106H68.7589V107H69.7589V106ZM69.7589 29.6364V28.6364H68.7589V29.6364H69.7589ZM109.619 32.3956L109.149 33.2783L109.154 33.2809L109.619 32.3956ZM117.337 39.7411L116.46 40.222L116.462 40.225L117.337 39.7411ZM118.12 58.049L117.242 57.5694L117.238 57.5774L118.12 58.049ZM113.571 63.12L113.021 62.2846L113.016 62.288L113.571 63.12ZM107.493 65.8793L107.23 64.9145L106.493 65.1155V65.8793H107.493ZM107.493 66.625H106.493V67.5632L107.43 67.623L107.493 66.625ZM114.54 69.0859L114.006 69.9314V69.9314L114.54 69.0859ZM120.245 96.0444L121.115 96.539V96.539L120.245 96.0444ZM112.005 103.315L111.575 102.413V102.413L112.005 103.315ZM79.006 97.7969H78.006V98.7969H79.006V97.7969ZM110.215 94.2919L110.893 95.0273L110.893 95.027L110.215 94.2919ZM112.08 78.5568L111.22 79.0685L111.223 79.0727L112.08 78.5568ZM106.449 73.2621L105.967 74.1379L105.974 74.1417L106.449 73.2621ZM79.006 71.2486V70.2486H78.006V71.2486H79.006ZM79.006 63.1946H78.006V64.1946H79.006V63.1946ZM103.69 61.554L103.255 60.6537L103.251 60.6556L103.69 61.554ZM109.059 56.9304L108.23 56.3709L108.226 56.3781L109.059 56.9304ZM107.568 41.3817L106.857 42.0851L106.861 42.0889L107.568 41.3817ZM79.006 37.8395V36.8395H78.006V37.8395H79.006ZM69.7589 106H70.7589V29.6364H69.7589H68.7589V106H69.7589ZM69.7589 29.6364V30.6364H96.4563V29.6364V28.6364H69.7589V29.6364ZM96.4563 29.6364V30.6364C101.668 30.6364 105.881 31.5385 109.149 33.2783L109.619 32.3956L110.089 31.5129C106.446 29.5737 101.884 28.6364 96.4563 28.6364V29.6364ZM109.619 32.3956L109.154 33.2809C112.455 35.0146 114.875 37.3307 116.46 40.222L117.337 39.7411L118.214 39.2603C116.419 35.9868 113.693 33.4059 110.084 31.5103L109.619 32.3956ZM117.337 39.7411L116.462 40.225C118.065 43.1244 118.873 46.3493 118.873 49.9205H119.873H120.873C120.873 46.0343 119.99 42.4729 118.212 39.2573L117.337 39.7411ZM119.873 49.9205H118.873C118.873 53.0899 118.307 55.6209 117.243 57.5694L118.12 58.049L118.998 58.5286C120.269 56.2015 120.873 53.3135 120.873 49.9205H119.873ZM118.12 58.049L117.238 57.5774C116.168 59.579 114.761 61.1399 113.021 62.2846L113.571 63.12L114.121 63.9554C116.159 62.6143 117.786 60.7946 119.002 58.5207L118.12 58.049ZM113.571 63.12L113.016 62.288C111.242 63.4705 109.315 64.3458 107.23 64.9145L107.493 65.8793L107.756 66.844C110.046 66.2195 112.171 65.2553 114.126 63.9521L113.571 63.12ZM107.493 65.8793H106.493V66.625H107.493H108.493V65.8793H107.493ZM107.493 66.625L107.43 67.623C109.57 67.7596 111.759 68.5121 114.006 69.9314L114.54 69.0859L115.074 68.2404C112.599 66.6768 110.09 65.7887 107.557 65.627L107.493 66.625ZM114.54 69.0859L114.006 69.9314C116.21 71.3234 118.079 73.3322 119.601 75.9954L120.469 75.4993L121.337 75.0032C119.677 72.0982 117.594 69.8314 115.074 68.2404L114.54 69.0859ZM120.469 75.4993L119.601 75.9954C121.086 78.5944 121.855 81.8191 121.855 85.7159H122.855H123.855C123.855 81.5588 123.034 77.9724 121.337 75.0032L120.469 75.4993ZM122.855 85.7159H121.855C121.855 89.3863 121.023 92.6561 119.376 95.5498L120.245 96.0444L121.115 96.539C122.948 93.3176 123.855 89.7017 123.855 85.7159H122.855ZM120.245 96.0444L119.376 95.5498C117.755 98.3992 115.178 100.694 111.575 102.413L112.005 103.315L112.435 104.218C116.339 102.357 119.256 99.8047 121.115 96.539L120.245 96.0444ZM112.005 103.315L111.575 102.413C108.002 104.116 103.279 105 97.3512 105V106V107C103.454 107 108.501 106.094 112.435 104.218L112.005 103.315ZM97.3512 106V105H69.7589V106V107H97.3512V106ZM79.006 97.7969V98.7969H97.3512V97.7969V96.7969H79.006V97.7969ZM97.3512 97.7969V98.7969C103.47 98.7969 108.076 97.623 110.893 95.0273L110.215 94.2919L109.538 93.5565C107.283 95.6341 103.313 96.7969 97.3512 96.7969V97.7969ZM110.215 94.2919L110.893 95.027C113.65 92.4843 115.056 89.3627 115.056 85.7159H114.056H113.056C113.056 88.7807 111.901 91.3765 109.537 93.5568L110.215 94.2919ZM114.056 85.7159H115.056C115.056 82.9512 114.349 80.3862 112.936 78.0409L112.08 78.5568L111.223 79.0727C112.445 81.1025 113.056 83.3101 113.056 85.7159H114.056ZM112.08 78.5568L112.939 78.0452C111.522 75.6661 109.507 73.779 106.925 72.3825L106.449 73.2621L105.974 74.1417C108.263 75.3801 110.002 77.0228 111.22 79.0685L112.08 78.5568ZM106.449 73.2621L106.932 72.3862C104.321 70.9478 101.265 70.2486 97.7987 70.2486V71.2486V72.2486C100.994 72.2486 103.705 72.8917 105.967 74.1379L106.449 73.2621ZM97.7987 71.2486V70.2486H79.006V71.2486V72.2486H97.7987V71.2486ZM79.006 71.2486H78.006V97.7969H79.006H80.006V71.2486H79.006ZM79.006 63.1946V64.1946H96.158V63.1946V62.1946H79.006V63.1946ZM96.158 63.1946V64.1946C99.0762 64.1946 101.74 63.6205 104.129 62.4524L103.69 61.554L103.251 60.6556C101.166 61.6749 98.808 62.1946 96.158 62.1946V63.1946ZM103.69 61.554L104.125 62.4543C106.54 61.2867 108.471 59.6291 109.893 57.4827L109.059 56.9304L108.226 56.3781C107.013 58.209 105.364 59.6337 103.255 60.6537L103.69 61.554ZM109.059 56.9304L109.888 57.4899C111.355 55.3167 112.073 52.7799 112.073 49.9205H111.073H110.073C110.073 52.4303 109.448 54.5668 108.23 56.3709L109.059 56.9304ZM111.073 49.9205H112.073C112.073 46.304 110.802 43.2021 108.275 40.6746L107.568 41.3817L106.861 42.0889C109.007 44.2347 110.073 46.8252 110.073 49.9205H111.073ZM107.568 41.3817L108.279 40.6784C105.675 38.0473 101.656 36.8395 96.4563 36.8395V37.8395V38.8395C101.398 38.8395 104.787 39.9931 106.857 42.0851L107.568 41.3817ZM96.4563 37.8395V36.8395H79.006V37.8395V38.8395H96.4563V37.8395ZM79.006 37.8395H78.006V63.1946H79.006H80.006V37.8395H79.006Z" fill="white" mask="url(#path-2-outside-1_202_4)"/>
</g>
<defs>
<filter id="filter0_d_202_4" x="13.3253" y="28.6364" width="114.53" height="87.4077" filterUnits="userSpaceOnUse" color-interpolation-filters="sRGB">
<feFlood flood-opacity="0" result="BackgroundImageFix"/>
<feColorMatrix in="SourceAlpha" type="matrix" values="0 0 0 0 0 0 0 0 0 0 0 0 0 0 0 0 0 0 127 0" result="hardAlpha"/>
<feOffset dy="4"/>
<feGaussianBlur stdDeviation="2"/>
<feComposite in2="hardAlpha" operator="out"/>
<feColorMatrix type="matrix" values="0 0 0 0 0 0 0 0 0 0 0 0 0 0 0 0 0 0 0.25 0"/>
<feBlend mode="normal" in2="BackgroundImageFix" result="effect1_dropShadow_202_4"/>
<feBlend mode="normal" in="SourceGraphic" in2="effect1_dropShadow_202_4" result="shape"/>
</filter>
</defs>
</svg>
